<svg xmlns="http://www.w3.org/2000/svg" width="18" height="22" viewBox="0 0 18 22" fill="none">
  <g clip-path="url(#clip0_90_2803)">
    <path fill-rule="evenodd" clip-rule="evenodd" d="M9.89764 2.22642C11.2924 0.387218 13.2328 0.378418 13.2328 0.378418C13.2328 0.378418 13.5232 2.10762 12.1328 3.77522C10.65 5.55282 8.96924 5.26242 8.96924 5.26242C8.96924 5.26242 8.65244 3.86322 9.89324 2.22642H9.89764Z" fill="black"/>
    <path fill-rule="evenodd" clip-rule="evenodd" d="M9.14962 6.47242C9.86682 6.47242 11.2 5.48682 12.9336 5.48682C15.9212 5.48682 17.096 7.61202 17.096 7.61202C17.096 7.61202 14.7992 8.78682 14.7992 11.638C14.7992 14.8544 17.6592 15.9632 17.6592 15.9632C17.6592 15.9632 15.6572 21.5952 12.9556 21.5952C11.7148 21.5952 10.7512 20.7592 9.44002 20.7592C8.12882 20.7592 6.78682 21.626 5.92442 21.626C3.45602 21.626 0.34082 16.2844 0.34082 11.99C0.34082 7.69562 2.98082 5.54842 5.45362 5.54842C7.06402 5.54842 8.30922 6.47682 9.14962 6.47682V6.47242Z" fill="black"/>
  </g>
  <defs>
    <clipPath id="clip0_90_2803">
      <rect width="17.3184" height="21.2432" fill="white" transform="translate(0.34082 0.378418)"/>
    </clipPath>
  </defs>
</svg>